<svg width="151" height="152" viewBox="0 0 151 152" fill="none"
  xmlns="http://www.w3.org/2000/svg">
  <path d="M150.848 8.13374V33.6714C150.848 38.0048 147.381 41.4933 143.074 41.4933H8.73078C4.42429 41.4933 0.957336 38.0048 0.957336 33.6714V8.13374C0.957336 3.8001 4.42429 0.311523 8.73078 0.311523H143.074C147.381 0.311523 150.848 3.8001 150.848 8.13374Z" fill="#3F83F4"/>
  <path d="M41.98 63.0551V143.477C41.98 147.817 38.505 151.311 34.1883 151.311H8.74933C4.43256 151.311 0.957336 147.817 0.957336 143.477V63.0551C0.957336 58.7146 4.43256 55.2205 8.74933 55.2205H34.1883C38.505 55.2205 41.98 58.7146 41.98 63.0551Z" fill="#1165EF"/>
  <path d="M150.848 63.0551V143.477C150.848 147.817 147.367 151.311 143.043 151.311H62.9328C58.6091 151.311 55.1283 147.817 55.1283 143.477V63.0551C55.1283 58.7146 58.6091 55.2205 62.9328 55.2205H143.043C147.367 55.2205 150.848 58.7146 150.848 63.0551Z" fill="#6FA4F6"/>
</svg>
